<?plantuml 1.2026.1?><svg xmlns="http://www.w3.org/2000/svg" xmlns:xlink="http://www.w3.org/1999/xlink" contentStyleType="text/css" data-diagram-type="DESCRIPTION" height="1306px" preserveAspectRatio="none" style="width:467px;height:1306px;background:#FFFFFF;" version="1.1" viewBox="0 0 467 1306" width="467px" zoomAndPan="magnify"><defs/><g><!--cluster Mobile app (Expo)--><g class="cluster" data-qualified-name="Mobile app .Expo." data-source-line="10" id="ent0006"><rect fill="none" height="641" rx="2.5" ry="2.5" style="stroke:#181818;stroke-width:1;" width="229.69" x="210.94" y="659"/><text fill="#000000" font-family="sans-serif" font-size="14" font-weight="bold" lengthAdjust="spacing" textLength="142.9326" x="254.3187" y="673.9951">Mobile app (Expo)</text></g><!--cluster Admin web (Vite)--><g class="cluster" data-qualified-name="Admin web .Vite." data-source-line="21" id="ent0015"><rect fill="none" height="421" rx="2.5" ry="2.5" style="stroke:#181818;stroke-width:1;" width="271.27" x="190.15" y="7"/><text fill="#000000" font-family="sans-serif" font-size="14" font-weight="bold" lengthAdjust="spacing" textLength="137.0264" x="257.2718" y="21.9951">Admin web (Vite)</text></g><!--cluster Backend API--><g class="cluster" data-qualified-name="Backend API" data-source-line="29" id="ent0021"><rect fill="none" height="183" rx="2.5" ry="2.5" style="stroke:#181818;stroke-width:1;" width="251.73" x="199.92" y="452"/><text fill="#000000" font-family="sans-serif" font-size="14" font-weight="bold" lengthAdjust="spacing" textLength="98.3896" x="276.5902" y="466.9951">Backend API</text></g><!--entity UC_MLogin--><g class="entity" data-qualified-name="Mobile app .Expo..UC_MLogin" data-source-line="11" id="ent0007"><ellipse cx="325.7837" cy="1184.0036" fill="#F1F1F1" rx="36.7637" ry="14.5236" style="stroke:#181818;stroke-width:0.5;"/><text fill="#000000" font-family="sans-serif" font-size="14" lengthAdjust="spacing" textLength="47.749" x="301.9091" y="1188.6521">Sign in</text></g><!--entity UC_MReg--><g class="entity" data-qualified-name="Mobile app .Expo..UC_MReg" data-source-line="12" id="ent0008"><ellipse cx="325.7843" cy="1259.0026" fill="#F1F1F1" rx="51.9143" ry="25.0626" style="stroke:#181818;stroke-width:0.5;"/><text fill="#000000" font-family="sans-serif" font-size="14" lengthAdjust="spacing" textLength="58.2695" x="296.6496" y="1254.0775">Register</text><text fill="#000000" font-family="sans-serif" font-size="14" lengthAdjust="spacing" textLength="72.2627" x="289.653" y="1270.3743">(app user)</text></g><!--entity UC_MDash--><g class="entity" data-qualified-name="Mobile app .Expo..UC_MDash" data-source-line="13" id="ent0009"><ellipse cx="325.7783" cy="719.0002" fill="#F1F1F1" rx="78.6883" ry="24.9702" style="stroke:#181818;stroke-width:0.5;"/><text fill="#000000" font-family="sans-serif" font-size="14" lengthAdjust="spacing" textLength="112.2871" x="269.6347" y="717.0627">View dashboard</text><text fill="#000000" font-family="sans-serif" font-size="14" lengthAdjust="spacing" textLength="88.1631" x="281.6967" y="733.3596">and weather</text></g><!--entity UC_MFilter--><g class="entity" data-qualified-name="Mobile app .Expo..UC_MFilter" data-source-line="14" id="ent0010"><ellipse cx="325.7772" cy="805.0001" fill="#F1F1F1" rx="86.7472" ry="26.0201" style="stroke:#181818;stroke-width:0.5;"/><text fill="#000000" font-family="sans-serif" font-size="14" lengthAdjust="spacing" textLength="118.0156" x="266.7694" y="801.4617">View filter status</text><text fill="#000000" font-family="sans-serif" font-size="14" lengthAdjust="spacing" textLength="118.5762" x="266.4891" y="817.7585">and expiry alerts</text></g><!--entity UC_MQual--><g class="entity" data-qualified-name="Mobile app .Expo..UC_MQual" data-source-line="15" id="ent0011"><ellipse cx="325.7827" cy="884.0005" fill="#F1F1F1" rx="79.8027" ry="18.3605" style="stroke:#181818;stroke-width:0.5;"/><text fill="#000000" font-family="sans-serif" font-size="14" lengthAdjust="spacing" textLength="130.2109" x="260.6772" y="888.649">View water quality</text></g><!--entity UC_MSet--><g class="entity" data-qualified-name="Mobile app .Expo..UC_MSet" data-source-line="16" id="ent0012"><ellipse cx="325.7769" cy="962.0046" fill="#F1F1F1" rx="98.8469" ry="24.7246" style="stroke:#181818;stroke-width:0.5;"/><text fill="#000000" font-family="sans-serif" font-size="14" lengthAdjust="spacing" textLength="104.2891" x="273.6324" y="956.5732">Adjust settings</text><text fill="#000000" font-family="sans-serif" font-size="14" lengthAdjust="spacing" textLength="143.8008" x="253.8765" y="972.8701">and manual controls</text></g><!--entity UC_MHist--><g class="entity" data-qualified-name="Mobile app .Expo..UC_MHist" data-source-line="17" id="ent0013"><ellipse cx="325.7791" cy="1045.9952" fill="#F1F1F1" rx="71.8291" ry="24.5452" style="stroke:#181818;stroke-width:0.5;"/><text fill="#000000" font-family="sans-serif" font-size="14" lengthAdjust="spacing" textLength="70.5469" x="290.5056" y="1040.2912">View filter</text><text fill="#000000" font-family="sans-serif" font-size="14" lengthAdjust="spacing" textLength="104.125" x="273.7166" y="1056.5881">change history</text></g><!--entity UC_MOut--><g class="entity" data-qualified-name="Mobile app .Expo..UC_MOut" data-source-line="18" id="ent0014"><ellipse cx="325.7814" cy="1120.0036" fill="#F1F1F1" rx="43.9514" ry="14.5236" style="stroke:#181818;stroke-width:0.5;"/><text fill="#000000" font-family="sans-serif" font-size="14" lengthAdjust="spacing" textLength="57.9141" x="296.8244" y="1124.6521">Sign out</text></g><!--entity UC_ALogin--><g class="entity" data-qualified-name="Admin web .Vite..UC_ALogin" data-source-line="22" id="ent0016"><ellipse cx="325.7782" cy="309.0016" fill="#F1F1F1" rx="65.7582" ry="15.5516" style="stroke:#181818;stroke-width:0.5;"/><text fill="#000000" font-family="sans-serif" font-size="14" lengthAdjust="spacing" textLength="95.4707" x="278.0428" y="313.6501">Admin sign in</text></g><!--entity UC_ADash--><g class="entity" data-qualified-name="Admin web .Vite..UC_ADash" data-source-line="23" id="ent0017"><ellipse cx="325.7844" cy="385.9969" fill="#F1F1F1" rx="119.6344" ry="26.3269" style="stroke:#181818;stroke-width:0.5;"/><text fill="#000000" font-family="sans-serif" font-size="14" lengthAdjust="spacing" textLength="160.6035" x="245.4827" y="381.8761">View admin dashboard</text><text fill="#000000" font-family="sans-serif" font-size="14" lengthAdjust="spacing" textLength="172.7441" x="239.4124" y="398.1729">(users / filters summary)</text></g><!--entity UC_AUsers--><g class="entity" data-qualified-name="Admin web .Vite..UC_AUsers" data-source-line="24" id="ent0018"><ellipse cx="325.7797" cy="65.9965" fill="#F1F1F1" rx="80.6697" ry="24.2065" style="stroke:#181818;stroke-width:0.5;"/><text fill="#000000" font-family="sans-serif" font-size="14" lengthAdjust="spacing" textLength="119.376" x="266.0917" y="65.224">Create or update</text><text fill="#000000" font-family="sans-serif" font-size="14" lengthAdjust="spacing" textLength="68.6328" x="291.4633" y="81.5209">app users</text></g><!--entity UC_AFilters--><g class="entity" data-qualified-name="Admin web .Vite..UC_AFilters" data-source-line="25" id="ent0019"><ellipse cx="325.778" cy="150.0009" fill="#F1F1F1" rx="81.698" ry="24.6709" style="stroke:#181818;stroke-width:0.5;"/><text fill="#000000" font-family="sans-serif" font-size="14" lengthAdjust="spacing" textLength="118.3643" x="266.5959" y="148.5135">Assign or update</text><text fill="#000000" font-family="sans-serif" font-size="14" lengthAdjust="spacing" textLength="84.1982" x="283.6789" y="164.8104">water filters</text></g><!--entity UC_AFHist--><g class="entity" data-qualified-name="Admin web .Vite..UC_AFHist" data-source-line="26" id="ent0020"><ellipse cx="325.7812" cy="233.9961" fill="#F1F1F1" rx="83.1612" ry="24.2161" style="stroke:#181818;stroke-width:0.5;"/><text fill="#000000" font-family="sans-serif" font-size="14" lengthAdjust="spacing" textLength="123.1494" x="264.2065" y="233.2086">View filter history</text><text fill="#000000" font-family="sans-serif" font-size="14" lengthAdjust="spacing" textLength="71.1963" x="290.183" y="249.5055">(per filter)</text></g><!--entity UC_Boot--><g class="entity" data-qualified-name="Backend API.UC_Boot" data-source-line="30" id="ent0022"><ellipse cx="325.7836" cy="511.0027" fill="#F1F1F1" rx="109.8636" ry="24.3727" style="stroke:#181818;stroke-width:0.5;"/><text fill="#000000" font-family="sans-serif" font-size="14" lengthAdjust="spacing" textLength="100.0371" x="275.7651" y="504.9126">Bootstrap first</text><text fill="#000000" font-family="sans-serif" font-size="14" lengthAdjust="spacing" textLength="163.9873" x="243.79" y="521.2095">SuperAdmin (one-time)</text></g><!--entity UC_Read--><g class="entity" data-qualified-name="Backend API.UC_Read" data-source-line="31" id="ent0023"><ellipse cx="325.7823" cy="594.9973" fill="#F1F1F1" rx="72.1223" ry="24.1973" style="stroke:#181818;stroke-width:0.5;"/><text fill="#000000" font-family="sans-serif" font-size="14" lengthAdjust="spacing" textLength="106.2852" x="272.6397" y="594.2392">Receive sensor</text><text fill="#000000" font-family="sans-serif" font-size="14" lengthAdjust="spacing" textLength="60.7783" x="295.3932" y="610.5361">readings</text></g><!--entity AppUser--><g class="entity" data-qualified-name="AppUser" data-source-line="5" id="ent0002"><ellipse cx="76.0785" cy="973.7" fill="#F1F1F1" rx="16" ry="16" style="stroke:#181818;stroke-width:0.5;"/><path d="M76.0785,993.7 C80.0785,993.7 83.0785,993.7 87.0785,989.7 C95.0785,989.7 103.0785,997.7 103.0785,1005.7 L103.0785,1009.7 C103.0785,1013.7 99.0785,1017.7 95.0785,1017.7 L57.0785,1017.7 C53.0785,1017.7 49.0785,1013.7 49.0785,1009.7 L49.0785,1005.7 C49.0785,997.7 57.0785,989.7 65.0785,989.7 C69.0785,993.7 72.0785,993.7 76.0785,993.7" fill="#F1F1F1" style="stroke:#181818;stroke-width:0.5;"/><text fill="#000000" font-family="sans-serif" font-size="14" lengthAdjust="spacing" textLength="62.3369" x="44.91" y="1031.1951">App user</text><text fill="#000000" font-family="sans-serif" font-size="14" lengthAdjust="spacing" textLength="58.4063" x="44.91" y="1047.492">(mobile)</text></g><!--entity Admin--><g class="entity" data-qualified-name="Admin" data-source-line="6" id="ent0003"><ellipse cx="76.0713" cy="174.85" fill="#F1F1F1" rx="16" ry="16" style="stroke:#181818;stroke-width:0.5;"/><path d="M76.0713,194.85 C80.0713,194.85 83.0713,194.85 87.0713,190.85 C95.0713,190.85 103.0713,198.85 103.0713,206.85 L103.0713,210.85 C103.0713,214.85 99.0713,218.85 95.0713,218.85 L57.0713,218.85 C53.0713,218.85 49.0713,214.85 49.0713,210.85 L49.0713,206.85 C49.0713,198.85 57.0713,190.85 65.0713,190.85 C69.0713,194.85 72.0713,194.85 76.0713,194.85" fill="#F1F1F1" style="stroke:#181818;stroke-width:0.5;"/><text fill="#000000" font-family="sans-serif" font-size="14" lengthAdjust="spacing" textLength="95.6826" x="28.23" y="232.3451">Administrator</text></g><!--entity SuperAdmin--><g class="entity" data-qualified-name="SuperAdmin" data-source-line="7" id="ent0004"><ellipse cx="76.0752" cy="286.85" fill="#F1F1F1" rx="16" ry="16" style="stroke:#181818;stroke-width:0.5;"/><path d="M76.0752,306.85 C80.0752,306.85 83.0752,306.85 87.0752,302.85 C95.0752,302.85 103.0752,310.85 103.0752,318.85 L103.0752,322.85 C103.0752,326.85 99.0752,330.85 95.0752,330.85 L57.0752,330.85 C53.0752,330.85 49.0752,326.85 49.0752,322.85 L49.0752,318.85 C49.0752,310.85 57.0752,302.85 65.0752,302.85 C69.0752,306.85 72.0752,306.85 76.0752,306.85" fill="#F1F1F1" style="stroke:#181818;stroke-width:0.5;"/><text fill="#000000" font-family="sans-serif" font-size="14" lengthAdjust="spacing" textLength="140.1504" x="6" y="344.3451">Super administrator</text></g><!--entity IoT--><g class="entity" data-qualified-name="IoT" data-source-line="8" id="ent0005"><ellipse cx="76.0757" cy="564.7" fill="#F1F1F1" rx="16" ry="16" style="stroke:#181818;stroke-width:0.5;"/><path d="M76.0757,584.7 C80.0757,584.7 83.0757,584.7 87.0757,580.7 C95.0757,580.7 103.0757,588.7 103.0757,596.7 L103.0757,600.7 C103.0757,604.7 99.0757,608.7 95.0757,608.7 L57.0757,608.7 C53.0757,608.7 49.0757,604.7 49.0757,600.7 L49.0757,596.7 C49.0757,588.7 57.0757,580.7 65.0757,580.7 C69.0757,584.7 72.0757,584.7 76.0757,584.7" fill="#F1F1F1" style="stroke:#181818;stroke-width:0.5;"/><text fill="#000000" font-family="sans-serif" font-size="14" lengthAdjust="spacing" textLength="71.6816" x="27.52" y="622.1951">IoT device</text><text fill="#000000" font-family="sans-serif" font-size="14" lengthAdjust="spacing" textLength="97.1113" x="27.52" y="638.492">(ESP / sensor)</text></g><!--link AppUser to UC_MLogin--><g class="link" data-entity-1="ent0002" data-entity-2="ent0007" data-link-type="dependency" data-source-line="34" id="lnk24"><path d="M98.86,1051.16 C116.64,1084.39 144.9,1127.21 182.15,1152 C214.16,1173.3 252.2585,1180.1197 282.9085,1182.5297" fill="none" id="AppUser-to-UC_MLogin" style="stroke:#181818;stroke-width:1;"/><polygon fill="#181818" points="288.89,1183,280.2312,1178.3068,283.9054,1182.6081,279.6041,1186.2822,288.89,1183" style="stroke:#181818;stroke-width:1;"/></g><!--link AppUser to UC_MReg--><g class="link" data-entity-1="ent0002" data-entity-2="ent0008" data-link-type="dependency" data-source-line="35" id="lnk25"><path d="M88.48,1050.94 C102.57,1099.1 131.17,1172.91 182.15,1216 C208.03,1237.87 238.8626,1247.5701 268.5726,1252.8501" fill="none" id="AppUser-to-UC_MReg" style="stroke:#181818;stroke-width:1;"/><polygon fill="#181818" points="274.48,1253.9,266.3188,1248.3869,269.5571,1253.0251,264.9189,1256.2635,274.48,1253.9" style="stroke:#181818;stroke-width:1;"/></g><!--link AppUser to UC_MDash--><g class="link" data-entity-1="ent0002" data-entity-2="ent0009" data-link-type="dependency" data-source-line="36" id="lnk26"><path d="M85.08,956.72 C96.82,901.89 123.98,812.48 182.15,761 C201.38,743.98 221.3852,735.2795 245.7852,729.2495" fill="none" id="AppUser-to-UC_MDash" style="stroke:#181818;stroke-width:1;"/><polygon fill="#181818" points="251.61,727.81,241.9132,726.086,246.756,729.0096,243.8325,733.8524,251.61,727.81" style="stroke:#181818;stroke-width:1;"/></g><!--link AppUser to UC_MFilter--><g class="link" data-entity-1="ent0002" data-entity-2="ent0010" data-link-type="dependency" data-source-line="37" id="lnk27"><path d="M97.9,956.94 C115.59,922.1 144.17,876.01 182.15,848 C201.72,833.57 220.3688,825.5456 243.4488,819.1356" fill="none" id="AppUser-to-UC_MFilter" style="stroke:#181818;stroke-width:1;"/><polygon fill="#181818" points="249.23,817.53,239.4878,816.0843,244.4124,818.868,241.6286,823.7925,249.23,817.53" style="stroke:#181818;stroke-width:1;"/></g><!--link AppUser to UC_MQual--><g class="link" data-entity-1="ent0002" data-entity-2="ent0011" data-link-type="dependency" data-source-line="38" id="lnk28"><path d="M107.72,973.62 C127.46,955.61 154.54,933.71 182.15,920 C206.06,908.13 228.3517,901.2461 253.3017,895.7261" fill="none" id="AppUser-to-UC_MQual" style="stroke:#181818;stroke-width:1;"/><polygon fill="#181818" points="259.16,894.43,249.5084,892.4686,254.2781,895.5101,251.2366,900.2797,259.16,894.43" style="stroke:#181818;stroke-width:1;"/></g><!--link AppUser to UC_MSet--><g class="link" data-entity-1="ent0002" data-entity-2="ent0012" data-link-type="dependency" data-source-line="39" id="lnk29"><path d="M107.7,998.81 C141.29,993.11 190.6745,984.7436 237.0645,976.8736" fill="none" id="AppUser-to-UC_MSet" style="stroke:#181818;stroke-width:1;"/><polygon fill="#181818" points="242.98,975.87,233.4377,973.4317,238.0504,976.7063,234.7758,981.319,242.98,975.87" style="stroke:#181818;stroke-width:1;"/></g><!--link AppUser to UC_MHist--><g class="link" data-entity-1="ent0002" data-entity-2="ent0013" data-link-type="dependency" data-source-line="40" id="lnk30"><path d="M107.7,1009.19 C145.69,1015.63 205.5443,1025.7876 254.7643,1034.1276" fill="none" id="AppUser-to-UC_MHist" style="stroke:#181818;stroke-width:1;"/><polygon fill="#181818" points="260.68,1035.13,252.4747,1029.6827,255.7503,1034.2947,251.1382,1037.5702,260.68,1035.13" style="stroke:#181818;stroke-width:1;"/></g><!--link AppUser to UC_MOut--><g class="link" data-entity-1="ent0002" data-entity-2="ent0014" data-link-type="dependency" data-source-line="41" id="lnk31"><path d="M107.59,1034.64 C127.29,1052.74 154.36,1074.66 182.15,1088 C214.18,1103.38 247.9007,1110.6484 277.2607,1114.8584" fill="none" id="AppUser-to-UC_MOut" style="stroke:#181818;stroke-width:1;"/><polygon fill="#181818" points="283.2,1115.71,274.8589,1110.473,278.2506,1115.0003,273.7234,1118.392,283.2,1115.71" style="stroke:#181818;stroke-width:1;"/></g><!--link Admin to UC_ALogin--><g class="link" data-entity-1="ent0003" data-entity-2="ent0016" data-link-type="dependency" data-source-line="43" id="lnk32"><path d="M124.3,235.52 C146.07,252.64 169.79,270.24 182.15,276 C208.99,288.51 235.0398,295.3701 261.8898,300.3301" fill="none" id="Admin-to-UC_ALogin" style="stroke:#181818;stroke-width:1;"/><polygon fill="#181818" points="267.79,301.42,259.6664,295.8516,262.8732,300.5117,258.2131,303.7185,267.79,301.42" style="stroke:#181818;stroke-width:1;"/></g><!--link Admin to UC_ADash--><g class="link" data-entity-1="ent0003" data-entity-2="ent0017" data-link-type="dependency" data-source-line="44" id="lnk33"><path d="M124.37,229.9 C132.34,236.89 140,244.68 146.15,253 C171.53,287.3 150.72,313.14 182.15,342 C195.7,354.44 207.075,361.3092 224.575,367.7092" fill="none" id="Admin-to-UC_ADash" style="stroke:#181818;stroke-width:1;"/><polygon fill="#181818" points="230.21,369.77,223.1314,362.9221,225.5142,368.0527,220.3836,370.4355,230.21,369.77" style="stroke:#181818;stroke-width:1;"/></g><!--link Admin to UC_AUsers--><g class="link" data-entity-1="ent0003" data-entity-2="ent0018" data-link-type="dependency" data-source-line="45" id="lnk34"><path d="M115.08,158.07 C133.88,140.67 157.74,121.16 182.15,108 C205.55,95.38 227.4115,87.6617 252.1215,81.0917" fill="none" id="Admin-to-UC_AUsers" style="stroke:#181818;stroke-width:1;"/><polygon fill="#181818" points="257.92,79.55,248.1944,77.9969,253.0879,80.8348,250.25,85.7283,257.92,79.55" style="stroke:#181818;stroke-width:1;"/></g><!--link Admin to UC_AFilters--><g class="link" data-entity-1="ent0003" data-entity-2="ent0019" data-link-type="dependency" data-source-line="46" id="lnk35"><path d="M124.25,188.05 C161.45,180.99 207.9654,172.1696 249.8754,164.2096" fill="none" id="Admin-to-UC_AFilters" style="stroke:#181818;stroke-width:1;"/><polygon fill="#181818" points="255.77,163.09,246.1817,160.8396,250.8578,164.023,247.6744,168.6991,255.77,163.09" style="stroke:#181818;stroke-width:1;"/></g><!--link Admin to UC_AFHist--><g class="link" data-entity-1="ent0003" data-entity-2="ent0020" data-link-type="dependency" data-source-line="47" id="lnk36"><path d="M124.25,204.05 C160.05,209.39 203.996,215.9526 245.056,222.0926" fill="none" id="Admin-to-UC_AFHist" style="stroke:#181818;stroke-width:1;"/><polygon fill="#181818" points="250.99,222.98,242.6805,217.693,246.045,222.2405,241.4974,225.605,250.99,222.98" style="stroke:#181818;stroke-width:1;"/></g><!--link SuperAdmin to UC_ALogin--><g class="link" data-entity-1="ent0004" data-entity-2="ent0016" data-link-type="dependency" data-source-line="49" id="lnk37"><path d="M146.41,309 C181.9,309 218.86,309 253.73,309" fill="none" id="SuperAdmin-to-UC_ALogin" style="stroke:#181818;stroke-width:1;"/><polygon fill="#181818" points="259.73,309,250.73,305,254.73,309,250.73,313,259.73,309" style="stroke:#181818;stroke-width:1;"/></g><!--link SuperAdmin to UC_ADash--><g class="link" data-entity-1="ent0004" data-entity-2="ent0017" data-link-type="dependency" data-source-line="50" id="lnk38"><path d="M146.58,330.88 C158.44,334.6 170.65,338.42 182.15,342 C205.78,349.36 225.8958,355.5841 249.0158,362.7041" fill="none" id="SuperAdmin-to-UC_ADash" style="stroke:#181818;stroke-width:1;"/><polygon fill="#181818" points="254.75,364.47,247.3259,357.9983,249.9715,362.9984,244.9714,365.644,254.75,364.47" style="stroke:#181818;stroke-width:1;"/></g><!--link SuperAdmin to UC_AUsers--><g class="link" data-entity-1="ent0004" data-entity-2="ent0018" data-link-type="dependency" data-source-line="51" id="lnk39"><path d="M132.57,269.87 C137.67,264.64 142.34,258.99 146.15,253 C181.78,196.97 136.22,155.95 182.15,108 C199.56,89.82 218.5746,80.837 242.6546,74.897" fill="none" id="SuperAdmin-to-UC_AUsers" style="stroke:#181818;stroke-width:1;"/><polygon fill="#181818" points="248.48,73.46,238.7839,71.7319,243.6255,74.6575,240.6999,79.4991,248.48,73.46" style="stroke:#181818;stroke-width:1;"/></g><!--link SuperAdmin to UC_AFilters--><g class="link" data-entity-1="ent0004" data-entity-2="ent0019" data-link-type="dependency" data-source-line="52" id="lnk40"><path d="M129.49,269.93 C135.4,264.55 141.11,258.85 146.15,253 C166.7,229.15 157.32,211.35 182.15,192 C202,176.53 221.6115,168.2538 245.4815,162.0738" fill="none" id="SuperAdmin-to-UC_AFilters" style="stroke:#181818;stroke-width:1;"/><polygon fill="#181818" points="251.29,160.57,241.5747,158.9534,246.4496,161.8232,243.5798,166.6981,251.29,160.57" style="stroke:#181818;stroke-width:1;"/></g><!--link SuperAdmin to UC_AFHist--><g class="link" data-entity-1="ent0004" data-entity-2="ent0020" data-link-type="dependency" data-source-line="53" id="lnk41"><path d="M146.54,286.99 C158.41,283.29 170.63,279.51 182.15,276 C209.56,267.66 234.2619,260.3464 259.9719,252.8164" fill="none" id="SuperAdmin-to-UC_AFHist" style="stroke:#181818;stroke-width:1;"/><polygon fill="#181818" points="265.73,251.13,255.9685,249.8209,260.9316,252.5354,258.2171,257.4984,265.73,251.13" style="stroke:#181818;stroke-width:1;"/></g><!--link SuperAdmin to UC_Boot--><g class="link" data-entity-1="ent0004" data-entity-2="ent0022" data-link-type="dependency" data-source-line="54" id="lnk42"><path d="M106.25,348.08 C125.95,372.83 153.5,404.48 182.15,428 C211.61,452.17 243.6202,470.8744 272.7102,485.9144" fill="none" id="SuperAdmin-to-UC_Boot" style="stroke:#181818;stroke-width:1;"/><polygon fill="#181818" points="278.04,488.67,271.8824,480.9834,273.5985,486.3737,268.2082,488.0898,278.04,488.67" style="stroke:#181818;stroke-width:1;"/></g><!--link IoT to UC_Read--><g class="link" data-entity-1="ent0005" data-entity-2="ent0023" data-link-type="dependency" data-source-line="56" id="lnk43"><path d="M125.13,595 C161.57,595 206.23,595 247.41,595" fill="none" id="IoT-to-UC_Read" style="stroke:#181818;stroke-width:1;"/><polygon fill="#181818" points="253.41,595,244.41,591,248.41,595,244.41,599,253.41,595" style="stroke:#181818;stroke-width:1;"/></g><?plantuml-src TLJBRjim4BphAnO-AGUZVr10IHCqG8EcSPEJWM8jhIKs4gbogJX6qN_laf9fFPoREJkhMSuipQzAjsYn0QwmC0UbIzXZpPHmh63kZDsuOqs01sBJK5BJte4pO5LPEIYKfTmfevCaS66LjIrqJ7QhqyRiL4rNAq06WPy5ZQoYKLgnioZ7dk2HKtdJjMG15wI0JvZtvYSKzAPo4i7RpIDy0YRDnlQoKauIFoBgKYwnUWWZ0SgGwUrxQuJrDm4_S8uizOqgDIWTUfzlVZryCwLeZGXFLCf4uNeutFGgigKuvhueEa21NEqCscAhKHTm87GLsTZoHSgBdhsgHGBOeUkuxwFtLjaZO4tMSUo-2yH5_m5z-vyEQ-MEaVn3pcDgLlpks8bTpadsWqw3McYG6-sigSzA6t8VZBdLUINk4bHYZB5dlQzoNdXhEXS9tpkN_9l44w8LZtQGlYX7ytJwCaypoXOPXU72yepTJtrMBFlHZyt0NTEWFSRuidaMDrR28f0rwzf2Veb3G-JHbymlDKzcv33VgAbFOr2DZNrq_57sWvaoTXkRpvFU1M-dtbrZ_agIOFPuFxFjsXZdNr4htx7ijlhyZ20rcjPEDHG_xjdJZSz9lT7mhBPQJ2dylfpuJtBsemml7DRhpwEdCqVz4vbZmVSvEAps70vBF0VzSiwnuD0Sz1kNz1SVe65xfbW_q0JgSvvYfmXdQ51EHXvFfIuKWju5l1UzK3WfNoe5-MKXn9hulyi12Bdz1m00?></g></svg>